<svg viewBox="0 0 32 32" fill="currentColor" xmlns="http://www.w3.org/2000/svg">
<path fill-rule="evenodd" clip-rule="evenodd" d="M7 4C5.34315 4 4 5.34315 4 7V25C4 26.6569 5.34315 28 7 28H25C26.6569 28 28 26.6569 28 25V7C28 5.34315 26.6569 4 25 4H7ZM10.1532 21.9996H12.7248V13.9029H10.1532V21.9996ZM11.422 12.7978H11.439C12.3362 12.7978 12.894 12.1758 12.894 11.3984C12.8772 10.604 12.3362 9.99963 11.4558 9.99963C10.5757 9.99963 10.0002 10.604 10.0002 11.3984C10.0002 12.1758 10.5593 12.7978 11.422 12.7978ZM19.4278 21.9996H22.0002V17.3565C22.0002 14.8698 20.7313 13.7128 19.0385 13.7128C17.672 13.7128 17.062 14.4998 16.7202 15.0502V13.9029H14.1473C14.1818 14.6625 14.1473 21.9996 14.1473 21.9996H16.7202V17.4777C16.7202 17.2351 16.7379 16.9946 16.8055 16.8216C16.9917 16.3372 17.4142 15.8372 18.1252 15.8372C19.0562 15.8372 19.4278 16.5798 19.4278 17.6678V21.9996Z"/>
</svg>
