<svg viewBox="0 0 32 32" fill="currentColor" xmlns="http://www.w3.org/2000/svg">
<path fill-rule="evenodd" clip-rule="evenodd" d="M7 4C5.34315 4 4 5.34315 4 7V25C4 26.6569 5.34315 28 7 28H25C26.6569 28 28 26.6569 28 25V7C28 5.34315 26.6569 4 25 4H7ZM22.4346 11.6428C22.6821 11.5728 22.9244 11.4866 23.16 11.3845C23.2586 11.3419 23.374 11.3679 23.4432 11.4485C23.5125 11.529 23.519 11.6446 23.4592 11.7321C23.0652 12.308 22.5809 12.8091 22.0185 13.2231C22.0213 13.31 22.0226 13.3972 22.0226 13.4835C22.0226 15.5501 21.2051 17.6416 19.7796 19.2218C18.6364 20.489 16.5856 21.9996 13.3072 21.9996C11.6395 21.9996 10.0157 21.5346 8.61135 20.6547C8.51646 20.5953 8.4762 20.4797 8.51419 20.376C8.55217 20.2724 8.65882 20.208 8.77035 20.221C8.99486 20.247 9.22427 20.2601 9.45236 20.2601C10.5455 20.2601 11.5869 19.9681 12.4974 19.4109C11.3995 19.1695 10.4914 18.378 10.1386 17.3019C10.1126 17.2225 10.1313 17.1355 10.1879 17.0731C10.2444 17.0106 10.3306 16.9819 10.4144 16.9976C10.4957 17.0128 10.5775 17.0243 10.6594 17.0323C9.70639 16.477 9.08307 15.4582 9.08307 14.3265C9.08307 14.3124 9.08307 14.2984 9.08341 14.2845C9.08535 14.2017 9.13146 14.126 9.20501 14.0848C9.27851 14.0436 9.3688 14.043 9.44278 14.0832C9.58059 14.158 9.72497 14.2209 9.87376 14.2713C9.38443 13.7092 9.10741 12.9899 9.10741 12.2317C9.10741 11.6751 9.25823 11.128 9.54352 10.6497C9.58349 10.5827 9.65457 10.5391 9.73368 10.533C9.81275 10.5269 9.88997 10.5592 9.9401 10.6193C11.3467 12.3053 13.3951 13.3635 15.5984 13.5525C15.5809 13.4185 15.572 13.2826 15.572 13.146C15.572 11.4111 17.0165 9.99963 18.7921 9.99963C19.6333 9.99963 20.4469 10.3252 21.046 10.8972C21.6407 10.7691 22.2079 10.5502 22.7337 10.2455C22.8201 10.1954 22.9292 10.2028 23.0078 10.2639C23.0864 10.3251 23.1181 10.4274 23.0875 10.5209C22.9511 10.9379 22.7277 11.3189 22.4346 11.6428Z"/>
</svg>