<svg viewBox="0 0 32 32" fill="currentColor" xmlns="http://www.w3.org/2000/svg">
<path d="M9.0888 26.6663H22.9115C25.3884 26.6663 26.6668 25.3879 26.6668 22.9453V9.05407C26.6668 6.61141 25.3884 5.33301 22.9115 5.33301H9.0888C6.62331 5.33301 5.3335 6.6 5.3335 9.05407V22.9453C5.3335 25.3879 6.62331 26.6663 9.0888 26.6663ZM16.0401 9.88731C16.6679 9.88731 17.1245 10.3211 17.1245 10.9374V16.4962L17.0103 18.9389L18.0833 17.592L19.3845 16.2223C19.5671 16.0282 19.8297 15.9141 20.115 15.9141C20.6857 15.9141 21.1081 16.325 21.1081 16.8843C21.1081 17.1811 21.0167 17.3979 20.8227 17.6148L16.9076 21.587C16.6451 21.8495 16.3825 21.9865 16.0401 21.9865C15.7205 21.9865 15.4694 21.8609 15.1955 21.587L11.2803 17.6148C11.0749 17.3979 10.9836 17.1811 10.9836 16.8843C10.9836 16.325 11.4059 15.9141 11.9766 15.9141C12.262 15.9141 12.5245 16.0282 12.7071 16.2223L14.0198 17.6034L15.0813 18.9274L14.9672 16.4962V10.9374C14.9672 10.3211 15.4237 9.88731 16.0401 9.88731Z"/>
</svg>
