<svg viewBox="0 0 24 24" fill="currentColor" xmlns="http://www.w3.org/2000/svg">
  <path fill-rule="evenodd" d="M12.066 5.506c-.771 0-1.495.271-2.016.73-.517.457-.787 1.055-.787 1.655V9.96h5.606V7.89c0-.6-.269-1.197-.787-1.653-.52-.46-1.244-.731-2.016-.731ZM7.757 7.891v2.083A2 2 0 0 0 6 11.96V18a2 2 0 0 0 2 2h8.55a2 2 0 0 0 2-2v-6.04a2 2 0 0 0-2-2h-.175V7.89c0-1.064-.48-2.062-1.296-2.783C14.266 4.39 13.181 4 12.066 4c-1.114 0-2.2.39-3.012 1.107-.817.72-1.297 1.72-1.297 2.784Zm4.263 5.206a1 1 0 0 0-1 1v1.765a1 1 0 0 0 1 1h.51a1 1 0 0 0 1-1v-1.765a1 1 0 0 0-1-1h-.51Z" clip-rule="evenodd"/>
</svg>
