<svg viewBox="0 0 32 32" fill="currentColor" xmlns="http://www.w3.org/2000/svg">
<path fill-rule="evenodd" clip-rule="evenodd" d="M8 4C5.79086 4 4 5.79086 4 8V24C4 26.2091 5.79086 28 8 28H24C26.2091 28 28 26.2091 28 24V8C28 5.79086 26.2091 4 24 4H8ZM10.3797 19.7999C9.85926 20.3198 9.87854 21.0708 10.4086 21.6003C10.929 22.1202 11.6807 22.1395 12.2011 21.6196L16.8945 16.9308L18.8509 14.7838L18.6292 16.796L18.5714 19.0682C18.5618 19.3859 18.687 19.7036 18.928 19.9443C19.4098 20.4257 20.1134 20.4353 20.5856 19.9636C20.8362 19.7132 20.9422 19.4533 20.9518 19.0971L21 12.4442C21 11.982 20.894 11.6643 20.6241 11.3947C20.335 11.1059 19.9977 11 19.5544 11L12.895 11.0481C12.5481 11.0674 12.2879 11.1733 12.0373 11.4236C11.5651 11.8954 11.5747 12.5982 12.0566 13.0796C12.2975 13.3203 12.6155 13.4455 12.9336 13.4359L15.1887 13.3781L17.2318 13.147L15.073 15.1111L10.3797 19.7999Z"/>
</svg>
