<svg width="24" height="24" viewBox="0 0 24 24" fill="currentColor" xmlns="http://www.w3.org/2000/svg">
<path d="M11.9961 20C16.3809 20 20 16.3791 20 12C20 7.62089 16.3731 4 11.9884 4C7.61141 4 4 7.62089 4 12C4 16.3791 7.61914 20 11.9961 20ZM16.1489 11.9923C16.1489 12.2244 16.0638 12.4023 15.8782 12.5803L13.1484 15.265C13.0092 15.3965 12.8545 15.4662 12.6535 15.4662C12.2745 15.4662 12.0039 15.1799 12.0039 14.793C12.0039 14.5996 12.0812 14.4217 12.2127 14.2979L13.187 13.3694L14.0841 12.6499L12.4369 12.7273H8.53166C8.11406 12.7273 7.8202 12.4178 7.8202 12C7.8202 11.5745 8.1218 11.265 8.53166 11.265H12.4369L14.0841 11.3424L13.1793 10.6228L12.2127 9.69439C12.0889 9.5706 12.0039 9.39265 12.0039 9.19923C12.0039 8.81238 12.2745 8.53385 12.6535 8.53385C12.8545 8.53385 13.0092 8.58801 13.1484 8.72727L15.8782 11.4197C16.0715 11.5977 16.1489 11.7756 16.1489 11.9923Z"/>
</svg>
