<svg width="48" height="48" viewBox="0 0 48 48" fill="none" xmlns="http://www.w3.org/2000/svg">
<path d="M11.1816 30.9017C11.5324 30.9017 11.9142 30.8708 12.327 30.8089C12.7603 30.7263 13.0802 30.6231 13.2866 30.4993V28.0229L11.0578 28.2086C10.48 28.2499 10.0053 28.3737 9.63385 28.5801C9.26239 28.7865 9.07666 29.096 9.07666 29.5087C9.07666 29.9215 9.23143 30.262 9.54099 30.5303C9.87117 30.7779 10.4181 30.9017 11.1816 30.9017ZM10.934 18.7363C12.0484 18.7363 13.0596 18.8498 13.9676 19.0768C14.8962 19.3038 15.6804 19.6547 16.3202 20.1293C16.9806 20.5833 17.4862 21.1715 17.837 21.8938C18.1878 22.5954 18.3632 23.4312 18.3632 24.4011V31.3351C18.3632 31.8717 18.2084 32.3154 17.8989 32.6662C17.61 32.9964 17.2592 33.2853 16.8464 33.5329C15.505 34.3378 13.6168 34.7402 11.1816 34.7402C10.0879 34.7402 9.09729 34.637 8.20991 34.4306C7.34316 34.2243 6.58992 33.9147 5.95018 33.502C5.33107 33.0892 4.84611 32.563 4.49528 31.9233C4.16509 31.2835 4 30.5406 4 29.6945C4 28.2705 4.42305 27.1768 5.26916 26.4132C6.11527 25.6497 7.42571 25.175 9.20048 24.9893L13.2556 24.5559V24.3392C13.2556 23.7408 12.9873 23.3177 12.4508 23.0701C11.9349 22.8018 11.1816 22.6676 10.191 22.6676C9.40685 22.6676 8.64328 22.7502 7.90036 22.9153C7.15743 23.0804 6.48674 23.2867 5.88827 23.5344C5.61999 23.3487 5.39299 23.0701 5.20725 22.6986C5.02152 22.3065 4.92866 21.9041 4.92866 21.4913C4.92866 20.9548 5.05248 20.5317 5.30012 20.2222C5.5684 19.892 5.97082 19.6134 6.50737 19.3864C7.10584 19.1594 7.80749 18.9943 8.61233 18.8911C9.4378 18.7879 10.2117 18.7363 10.934 18.7363Z" fill="white"/>
<path d="M35.8191 31.7373C35.7159 32.7073 35.427 33.4502 34.9523 33.9661C34.4983 34.482 33.8276 34.74 32.9402 34.74C32.2799 34.74 31.6917 34.5852 31.1758 34.2757C30.6599 33.9455 30.1027 33.3986 29.5042 32.635L26.4396 28.7966V34.4304C26.2126 34.4717 25.8721 34.5233 25.4181 34.5852C24.9847 34.6678 24.541 34.709 24.087 34.709C23.633 34.709 23.2203 34.6781 22.8488 34.6162C22.498 34.5543 22.1988 34.4304 21.9511 34.2447C21.7035 34.059 21.5074 33.8113 21.363 33.5018C21.2392 33.1716 21.1772 32.7485 21.1772 32.2326V14.3096C21.4043 14.2476 21.7344 14.1857 22.1678 14.1238C22.6218 14.0413 23.0758 14 23.5298 14C23.9839 14 24.3863 14.031 24.7371 14.0929C25.1086 14.1548 25.4181 14.2786 25.6658 14.4643C25.9134 14.6501 26.0991 14.908 26.2229 15.2382C26.3674 15.5478 26.4396 15.9605 26.4396 16.4764V24.6486L31.7639 19.2005C32.837 19.2005 33.6935 19.4378 34.3332 19.9124C34.9936 20.3871 35.3238 20.9856 35.3238 21.7078C35.3238 22.0174 35.2722 22.3063 35.169 22.5746C35.0658 22.8222 34.9007 23.0802 34.6737 23.3485C34.4674 23.6168 34.1888 23.9057 33.8379 24.2152C33.5077 24.5041 33.1156 24.8446 32.6616 25.2367L30.8662 26.7845L35.8191 31.7373Z" fill="white"/>
<path d="M38.6333 31.7065C38.6333 30.8397 38.9016 30.1174 39.4381 29.5396C39.9747 28.9618 40.7073 28.6729 41.636 28.6729C42.5646 28.6729 43.2972 28.9618 43.8338 29.5396C44.3703 30.1174 44.6386 30.8397 44.6386 31.7065C44.6386 32.5732 44.3703 33.2955 43.8338 33.8733C43.2972 34.4512 42.5646 34.7401 41.636 34.7401C40.7073 34.7401 39.9747 34.4512 39.4381 33.8733C38.9016 33.2955 38.6333 32.5732 38.6333 31.7065Z" fill="white"/>
</svg>
