<svg width="48" height="48" viewBox="0 0 48 48" fill="none" xmlns="http://www.w3.org/2000/svg">
<rect width="48" height="48" fill="white"/>
<path d="M14.9945 12.9076C15.0543 12.9692 15.1349 13.0063 15.2206 13.0118C15.3063 13.0172 15.391 12.9906 15.4581 12.9371C16.3207 12.2618 17.2604 11.6913 18.2574 11.2374V24.0425L18.2683 24.1353C18.2884 25.2915 18.656 26.415 19.3234 27.3594C19.9907 28.3038 20.9269 29.0255 22.0101 29.4305L22.1312 29.4513C22.2241 29.4507 22.313 29.4134 22.3786 29.3477C22.4442 29.2819 22.4811 29.1929 22.4814 29.1V24.3589L22.4759 24.3L22.4585 24.1658L22.4814 24.0403V6.44834C22.4814 6.35537 22.4445 6.26618 22.3789 6.20034C22.3132 6.13449 22.2242 6.09736 22.1312 6.09707L22.0941 6.09925C18.64 6.46333 15.3692 7.83473 12.6883 10.0429C12.6507 10.0741 12.62 10.1128 12.5981 10.1566C12.5763 10.2003 12.5638 10.2482 12.5614 10.297C12.5591 10.3458 12.5669 10.3946 12.5844 10.4403C12.6019 10.4859 12.6288 10.5274 12.6632 10.5622L14.9945 12.9054V12.9076ZM37.8076 12.6C37.7768 12.562 37.7383 12.5309 37.6947 12.5087C37.6511 12.4865 37.6033 12.4738 37.5545 12.4713H37.537C37.4442 12.4716 37.3553 12.5084 37.2894 12.5738L34.957 14.9193C34.8965 14.9795 34.8603 15.0599 34.855 15.1451C34.8498 15.2304 34.876 15.3146 34.9287 15.3818C36.8352 17.8283 37.8659 20.8438 37.8556 23.9454C37.8556 31.6363 31.6308 37.8949 23.9792 37.8949C16.3276 37.8949 10.1028 31.6374 10.1028 23.9454C10.1028 20.8134 11.1152 17.8516 13.0298 15.3818C13.0823 15.3143 13.1084 15.23 13.1031 15.1446C13.0979 15.0593 13.0617 14.9787 13.0014 14.9182L10.669 12.5727C10.6366 12.54 10.598 12.5142 10.5555 12.4966C10.513 12.4789 10.4674 12.47 10.4214 12.4702H10.4039C10.3551 12.4726 10.3072 12.4853 10.2636 12.5074C10.22 12.5296 10.1816 12.5608 10.1508 12.5989C7.5502 15.8084 6.13032 19.8135 6.12866 23.9443C6.12866 33.8389 14.1381 41.8887 23.9814 41.8887C33.8247 41.8887 41.8341 33.8389 41.8341 23.9443C41.8341 19.8185 40.4061 15.7898 37.8108 12.5989L37.8076 12.6ZM23.9781 32.0356C19.5403 32.0356 15.9294 28.4062 15.9294 23.9454C15.9294 22.3811 16.3756 20.8625 17.221 19.5534C17.2646 19.4862 17.2837 19.406 17.2752 19.3264C17.2666 19.2467 17.2309 19.1724 17.1741 19.116L14.8658 16.7956C14.8334 16.7629 14.7948 16.7368 14.7523 16.719C14.7098 16.7013 14.6642 16.6921 14.6181 16.692L14.5919 16.6931C14.5415 16.6969 14.4925 16.7115 14.4483 16.736C14.404 16.7605 14.3656 16.7942 14.3356 16.8349C12.8226 18.8963 12.0102 21.3884 12.0174 23.9454C12.0174 30.5749 17.3825 35.9662 23.9781 35.9662C30.5727 35.9662 35.9378 30.5738 35.9378 23.9454C35.9378 19.4443 33.4887 15.3851 29.5298 13.2993V11.1622C30.589 11.628 31.5861 12.2236 32.497 12.9371C32.5643 12.99 32.6488 13.0164 32.7342 13.0112C32.8197 13.006 32.9003 12.9695 32.9607 12.9087L35.2919 10.5654C35.3266 10.5309 35.3535 10.4894 35.371 10.4437C35.3885 10.3981 35.3961 10.3492 35.3934 10.3003C35.3911 10.2514 35.3786 10.2035 35.3566 10.1597C35.3346 10.1159 35.3037 10.0772 35.2658 10.0462C32.5398 7.79956 29.204 6.42003 25.6876 6.08507L25.6548 6.08289C25.6088 6.08274 25.5632 6.0917 25.5207 6.10925C25.4781 6.1268 25.4395 6.15259 25.4069 6.18513C25.3744 6.21768 25.3486 6.25634 25.331 6.29889C25.3135 6.34144 25.3045 6.38704 25.3047 6.43307V15.6709C25.3043 15.7518 25.3321 15.8303 25.3833 15.8929C25.4344 15.9556 25.5057 15.9986 25.585 16.0145C29.3159 16.7749 32.0247 20.1098 32.0247 23.9433C32.0247 28.404 28.4148 32.0334 23.977 32.0334L23.9781 32.0356Z" fill="#FE2D5B"/>
</svg>
