<svg width="48" height="48" viewBox="0 0 48 48" fill="none" xmlns="http://www.w3.org/2000/svg">
<rect width="48" height="48" fill="white"/>
<rect width="48" height="48" fill="white"/>
<circle cx="24" cy="24" r="20.7273" fill="black" fill-opacity="0.09"/>
<circle cx="24" cy="24" r="20.4773" stroke="#2869BF" stroke-opacity="0.04" stroke-width="0.5"/>
<circle cx="24" cy="24" r="13.0909" fill="black" fill-opacity="0.09"/>
<circle cx="24" cy="24" r="12.8409" stroke="#2869BF" stroke-opacity="0.04" stroke-width="0.5"/>
<path fill-rule="evenodd" clip-rule="evenodd" d="M24.25 0H23.75V23.75H0V24.25H23.75V48H24.25V24.25H48V23.75H24.25V0Z" fill="#6277A1" fill-opacity="0.1"/>
<rect width="48" height="48" fill="black"/>
<path d="M21.7305 29.4658H15.8012C15.4641 29.4658 15.1329 29.74 15.0612 30.0784L13.5138 37.3873C13.4421 37.7257 13.6572 37.9999 13.9943 37.9999H19.9236C20.2607 37.9999 20.5919 37.7257 20.6636 37.3873L22.211 30.0784C22.2827 29.74 22.0675 29.4658 21.7305 29.4658Z" fill="#9603FF"/>
<path d="M18.1156 18.5343H24.045C24.382 18.5343 24.7133 18.26 24.785 17.9216L26.3324 10.6127C26.404 10.2743 26.1889 10.0001 25.8519 10.0001H19.9225C19.5855 10.0001 19.2542 10.2743 19.1825 10.6127L17.6351 17.9216C17.5634 18.26 17.7786 18.5343 18.1156 18.5343Z" fill="#0BE3F9"/>
<path d="M16.055 28.2671H21.9843C22.3214 28.2671 22.6526 27.9928 22.7243 27.6545L24.2717 20.3455C24.3433 20.0072 24.1282 19.7329 23.7912 19.7329H17.8619C17.5248 19.7329 17.1936 20.0072 17.1219 20.3455L15.5744 27.6545C15.5027 27.9928 15.7179 28.2671 16.055 28.2671Z" fill="#0CFFAD"/>
<path opacity="0.2" d="M25.3167 20.4109L23.797 27.589C23.7253 27.9273 23.9404 28.2016 24.2775 28.2016H30.0972C30.4342 28.2016 30.7654 27.9273 30.8371 27.589L32.3569 20.4109C32.4285 20.0726 32.2134 19.7983 31.8764 19.7983H26.0567C25.7197 19.7983 25.3884 20.0726 25.3167 20.4109Z" fill="#FF8C04"/>
<path d="M22.1483 38H28.0776C28.4146 38 28.7459 37.7257 28.8176 37.3874L30.365 30.0784C30.4366 29.7401 30.2215 29.4658 29.8845 29.4658H23.9552C23.6182 29.4658 23.2869 29.7401 23.2152 30.0784L21.6678 37.3874C21.5962 37.7257 21.8113 38 22.1483 38Z" fill="#FC0B44"/>
<path d="M34.0057 10H28.0764C27.7394 10 27.4081 10.2743 27.3364 10.6126L25.789 17.9216C25.7174 18.26 25.9325 18.5343 26.2695 18.5343H32.1988C32.5359 18.5343 32.8671 18.26 32.9388 17.9216L34.4862 10.6127C34.5579 10.2743 34.3427 10 34.0057 10Z" fill="#EAE406"/>
</svg>
