<svg width="48" height="48" viewBox="0 0 48 48" fill="none" xmlns="http://www.w3.org/2000/svg">
<rect width="48" height="48" fill="white"/>
<path fill-rule="evenodd" clip-rule="evenodd" d="M18.1124 14.437C19.892 13.2758 21.8427 12.7294 23.9987 12.6952C26.1205 12.6952 28.0712 13.2758 29.885 14.437L33.6495 10.6802C30.7063 8.46036 27.5236 7.33334 23.9987 7.33334C20.4738 7.33334 17.2569 8.46036 14.3822 10.6802L18.1124 14.437ZM32.1797 15.2909C32.1797 15.4617 32.2482 15.5983 32.3509 15.7349C32.4877 15.8374 32.6246 15.9057 32.7957 15.9057C32.9669 15.9057 33.1038 15.8374 33.2406 15.7349C33.3433 15.5983 33.4118 15.4617 33.4118 15.2909C33.4118 15.1202 33.3433 14.9836 33.2406 14.847C33.0011 14.6079 32.5904 14.6079 32.3509 14.847C32.2482 14.9836 32.1797 15.1202 32.1797 15.2909ZM30.3659 17.0327C30.3659 17.2035 30.4344 17.3742 30.5371 17.4767C30.6397 17.5791 30.8108 17.6474 30.982 17.6474C31.1531 17.6474 31.29 17.6133 31.4268 17.4767C31.5295 17.3401 31.598 17.2035 31.598 17.0327C31.598 16.8619 31.5295 16.6912 31.4268 16.5887C31.1873 16.3497 30.7766 16.3497 30.5371 16.5887C30.4344 16.7253 30.3659 16.8619 30.3659 17.0327ZM28.5864 18.7745C28.5864 18.9452 28.6548 19.116 28.7917 19.2184C28.9286 19.3551 29.0997 19.3892 29.2708 19.3892C29.4419 19.3892 29.613 19.3551 29.7499 19.2184C29.8868 19.116 29.9553 18.9452 29.9553 18.7745C29.9553 18.6037 29.8868 18.4329 29.7499 18.3305C29.4762 18.0914 29.0655 18.0914 28.7917 18.3305C28.6548 18.4671 28.5864 18.6037 28.5864 18.7745ZM26.9437 20.5162C26.9437 20.687 26.9779 20.8577 27.1148 20.9602C27.2175 21.0968 27.3886 21.1651 27.5597 21.131C27.7308 21.131 27.9019 21.0968 28.0046 20.9602C28.1073 20.8577 28.1757 20.687 28.1757 20.5162C28.1757 20.3455 28.1415 20.1747 28.0046 20.0722C27.765 19.8332 27.3544 19.8332 27.1148 20.0722C27.0121 20.2089 26.9437 20.3455 26.9437 20.5162ZM25.2668 21.814C25.1641 21.9506 25.0957 22.0872 25.0957 22.258C25.0957 22.4287 25.1641 22.5995 25.2668 22.702C25.4037 22.8044 25.5406 22.8727 25.7117 22.8727C25.8828 22.8727 26.0539 22.8044 26.1566 22.702C26.2592 22.5654 26.3277 22.4287 26.3277 22.258C26.3277 22.0872 26.2935 21.9506 26.1566 21.814C25.917 21.5749 25.5063 21.5749 25.2668 21.814ZM21.6734 25.6732C21.6734 25.844 21.7419 26.0147 21.8445 26.1172C21.9814 26.2538 22.1183 26.3221 22.2894 26.2879C22.4605 26.2879 22.6316 26.2538 22.7343 26.1172C22.837 25.9806 22.9054 25.844 22.9054 25.6732C22.9054 25.5024 22.8712 25.3658 22.7343 25.2292C22.4948 24.9902 22.0841 24.9902 21.8445 25.2292C21.7419 25.3658 21.6734 25.5024 21.6734 25.6732ZM19.8254 27.415C19.8254 27.5857 19.8938 27.7565 20.0307 27.8589C20.1676 27.9955 20.3387 28.0638 20.5098 28.0297C20.681 28.0297 20.8521 27.9955 20.989 27.8589C21.1259 27.7223 21.1943 27.5857 21.1943 27.415C21.1943 27.2442 21.1259 27.1076 20.989 26.971C20.7152 26.7319 20.3045 26.7319 20.0307 26.971C19.8938 27.1076 19.8254 27.2442 19.8254 27.415ZM18.1827 29.1909C18.1827 29.3616 18.2512 29.5324 18.3538 29.6348C18.4907 29.7373 18.6276 29.8056 18.7987 29.8056C18.9698 29.8056 19.1067 29.7715 19.2436 29.6348C19.3463 29.4982 19.4147 29.3616 19.4147 29.1909C19.4147 29.0201 19.3463 28.8493 19.2436 28.7469C19.0041 28.5078 18.5934 28.5078 18.3538 28.7469C18.2512 28.8493 18.1827 29.0201 18.1827 29.1909ZM16.4374 30.9326C16.4374 31.1034 16.4716 31.2741 16.6085 31.3766C16.7111 31.5132 16.8823 31.5474 17.0534 31.5474C17.2245 31.5474 17.3614 31.5132 17.4983 31.3766C17.6009 31.2741 17.6694 31.1034 17.6694 30.9326C17.6694 30.7619 17.6009 30.6253 17.4983 30.4887C17.2587 30.2496 16.848 30.2496 16.6085 30.4887C16.5058 30.6253 16.4374 30.7619 16.4374 30.9326ZM14.5893 32.6744C14.5893 32.8451 14.6578 33.0159 14.7947 33.1184C14.8973 33.255 15.0685 33.2891 15.2396 33.2891C15.4107 33.2891 15.5818 33.2208 15.7187 33.1184C15.8556 33.0159 15.924 32.8451 15.924 32.6744C15.924 32.5036 15.8556 32.367 15.7187 32.2304C15.4791 31.9913 15.0685 31.9913 14.7947 32.2304C14.6578 32.367 14.5893 32.5036 14.5893 32.6744ZM12.9124 34.4161C12.9124 34.5869 12.9467 34.7235 13.0835 34.8601C13.2204 34.9967 13.3916 35.065 13.5284 35.0309C13.6996 35.0309 13.8707 34.9626 13.9733 34.8601C14.076 34.7235 14.1444 34.5869 14.1444 34.4161C14.1444 34.2454 14.1102 34.1088 13.9733 33.9722C13.7338 33.7331 13.3231 33.7331 13.0835 33.9722C12.9809 34.1088 12.9124 34.2454 12.9124 34.4161ZM14.1444 13.515C14.1444 13.6858 14.076 13.8224 13.9733 13.959C13.8707 14.0956 13.6996 14.1639 13.5284 14.1298C13.3573 14.1298 13.1862 14.0615 13.0835 13.959C12.9809 13.8224 12.9124 13.6858 12.9124 13.515C12.9124 13.3443 12.9467 13.2077 13.0835 13.0711C13.3231 12.832 13.7338 12.832 13.9733 13.0711C14.076 13.2077 14.1444 13.3443 14.1444 13.515ZM15.924 15.2909C15.924 15.4617 15.8556 15.5983 15.7187 15.7349C15.5818 15.8374 15.4107 15.9057 15.2396 15.9057C15.0685 15.9057 14.8973 15.8374 14.7605 15.7349C14.6236 15.5983 14.5551 15.4617 14.5551 15.2909C14.5551 15.1202 14.6236 14.9836 14.7605 14.847C15.0342 14.6079 15.4449 14.6079 15.7187 14.847C15.8556 14.9836 15.924 15.1202 15.924 15.2909ZM17.6694 17.0327C17.6694 17.2035 17.6009 17.3742 17.4983 17.4767C17.3614 17.5791 17.1903 17.6474 17.0534 17.6474C16.8823 17.6474 16.7454 17.6133 16.6085 17.4767C16.5058 17.3401 16.4374 17.2035 16.4374 17.0327C16.4374 16.8619 16.5058 16.6912 16.6085 16.5887C16.848 16.3497 17.2587 16.3497 17.4983 16.5887C17.6009 16.7253 17.6694 16.8619 17.6694 17.0327ZM19.4147 18.7745C19.4147 18.9452 19.3463 19.116 19.2436 19.2184C19.1067 19.3551 18.9356 19.3892 18.7987 19.3892C18.6276 19.3892 18.4907 19.3551 18.3538 19.2184C18.2512 19.116 18.1827 18.9452 18.1827 18.7745C18.1827 18.6037 18.2512 18.4329 18.3538 18.3305C18.5934 18.0914 19.0041 18.0914 19.2436 18.3305C19.3463 18.4671 19.4147 18.6037 19.4147 18.7745ZM21.1601 20.5162C21.1601 20.687 21.0916 20.8577 20.9547 20.9602C20.8521 21.0968 20.681 21.1651 20.5098 21.131C20.3387 21.131 20.1676 21.0968 20.0307 20.9602C19.8938 20.8577 19.8254 20.687 19.8254 20.5162C19.8254 20.3455 19.8938 20.1747 20.0307 20.0722C20.2703 19.8332 20.7152 19.8332 20.9547 20.0722C21.0916 20.2089 21.1601 20.3455 21.1601 20.5162ZM22.7343 21.814C22.837 21.9506 22.9054 22.0872 22.9054 22.258C22.9054 22.4287 22.8712 22.5995 22.7343 22.702C22.5974 22.8044 22.4605 22.8727 22.2894 22.8727C22.1183 22.8727 21.9472 22.8044 21.8445 22.702C21.7419 22.5654 21.6734 22.4287 21.6734 22.258C21.6734 22.0872 21.7076 21.9506 21.8445 21.814C22.0841 21.5749 22.4948 21.5749 22.7343 21.814ZM24.6508 24.0339C24.6508 24.2047 24.6166 24.3413 24.4797 24.4779C24.377 24.5803 24.2059 24.6486 24.0348 24.6486C23.8637 24.6486 23.6925 24.5803 23.5899 24.4779C23.4872 24.3413 23.4188 24.2047 23.4188 24.0339C23.4188 23.8631 23.453 23.7265 23.5899 23.5899C23.8294 23.3509 24.2401 23.3509 24.4797 23.5899C24.5823 23.7265 24.6508 23.8631 24.6508 24.0339ZM26.4304 25.6732C26.4304 25.844 26.3619 26.0147 26.225 26.1172C26.0881 26.2538 25.917 26.3221 25.7801 26.2879C25.609 26.2879 25.4379 26.2538 25.301 26.1172C25.1641 25.9806 25.0957 25.844 25.0957 25.6732C25.0957 25.5024 25.1641 25.3658 25.301 25.2292C25.5406 24.9902 25.9512 24.9902 26.225 25.2292C26.3619 25.3658 26.4304 25.5024 26.4304 25.6732ZM28.1757 27.415C28.1757 27.5857 28.1073 27.7565 28.0046 27.8589C27.8677 27.9955 27.6966 28.0638 27.5597 28.0297C27.3886 28.0297 27.2517 27.9955 27.1148 27.8589C27.0121 27.7223 26.9437 27.5857 26.9437 27.415C26.9437 27.2442 27.0121 27.1076 27.1148 26.971C27.3544 26.7319 27.765 26.7319 28.0046 26.971C28.1073 27.1076 28.1757 27.2442 28.1757 27.415ZM29.9211 29.1909C29.9211 29.3616 29.8526 29.5324 29.7499 29.6348C29.613 29.7373 29.4762 29.8056 29.305 29.8056C29.1339 29.8056 28.997 29.7715 28.8602 29.6348C28.7575 29.4982 28.689 29.3616 28.689 29.1909C28.689 29.0201 28.7575 28.8493 28.8602 28.7469C29.0997 28.5078 29.5104 28.5078 29.7499 28.7469C29.8526 28.8493 29.9211 29.0201 29.9211 29.1909ZM31.5637 30.9326C31.5637 31.1034 31.5295 31.2741 31.3926 31.3766C31.29 31.5132 31.1188 31.5474 30.9477 31.5474C30.7766 31.5474 30.6397 31.5132 30.5028 31.3766C30.4002 31.2741 30.3317 31.1034 30.3317 30.9326C30.3317 30.7619 30.4002 30.6253 30.5028 30.4887C30.7424 30.2496 31.1531 30.2496 31.3926 30.4887C31.4953 30.6253 31.5637 30.7619 31.5637 30.9326ZM33.4118 32.6744C33.4118 32.8451 33.3775 33.0159 33.2406 33.1184C33.138 33.255 32.9669 33.2891 32.7957 33.2891C32.6246 33.2891 32.4535 33.2208 32.3509 33.1184C32.2482 33.0159 32.1797 32.8451 32.1797 32.6744C32.1797 32.5036 32.214 32.367 32.3509 32.2304C32.5904 31.9913 33.0011 31.9913 33.2406 32.2304C33.3433 32.367 33.4118 32.5036 33.4118 32.6744ZM35.1913 34.4161C35.1913 34.5869 35.1229 34.7235 34.986 34.8601C34.8491 34.9967 34.678 35.065 34.5411 35.0309C34.37 35.0309 34.1989 34.9626 34.062 34.8601C33.9251 34.7235 33.8566 34.5869 33.8566 34.4161C33.8566 34.2454 33.9251 34.1088 34.062 33.9722C34.3015 33.7331 34.7122 33.7331 34.986 33.9722C35.1229 34.1088 35.1913 34.2454 35.1913 34.4161ZM33.8223 13.515C33.8223 13.6858 33.8907 13.8224 34.0276 13.959C34.1645 14.0956 34.3356 14.1639 34.5067 14.1298C34.6778 14.1298 34.8489 14.0615 34.9858 13.959C35.1227 13.8224 35.1912 13.6858 35.1912 13.515C35.1912 13.3443 35.1227 13.2077 34.9858 13.0711C34.7121 12.832 34.3014 12.832 34.0276 13.0711C33.8907 13.2077 33.8223 13.3443 33.8223 13.515ZM12.5691 23.9997C12.5691 26.083 13.1508 28.0297 14.3486 29.8398L10.6526 33.6306C8.42813 30.7277 7.33301 27.5174 7.33301 24.0339C7.33301 20.4821 8.42813 17.3059 10.6184 14.4371L14.3486 18.1597C13.1508 19.9356 12.5691 21.8823 12.5691 23.9997ZM29.8867 33.5623C28.1071 34.7576 26.1564 35.3723 24.0346 35.4065C21.8786 35.4065 19.8937 34.8259 18.1141 33.5964L14.3496 37.319C17.2585 39.5731 20.4754 40.7001 24.0346 40.6659C27.5595 40.6318 30.7422 39.5047 33.6169 37.319L29.8867 33.5623ZM35.3268 24.0679C35.361 21.9163 34.745 19.9355 33.5472 18.1254L37.3117 14.3345C39.5704 17.2375 40.6997 20.4478 40.6655 23.9996C40.6655 27.4831 39.5361 30.6593 37.3117 33.528L33.5472 29.8054C34.7108 28.0637 35.2925 26.1512 35.3268 24.0679ZM37.4828 34.7236C38.9201 34.7236 40.1179 35.8848 40.1179 37.3533C40.1179 38.7877 38.9544 39.9831 37.4828 39.9831C36.0454 39.9831 34.8477 38.8219 34.8477 37.3533C34.8477 35.8848 36.0112 34.7236 37.4828 34.7236ZM13.1859 37.3533C13.1859 35.8848 12.0223 34.7236 10.585 34.7236C9.14762 34.7236 7.98405 35.8848 7.98405 37.3533C7.98405 38.8219 9.14762 39.9831 10.585 39.9831C12.0223 39.9831 13.1859 38.7877 13.1859 37.3533ZM37.5186 7.91398C38.9559 7.91398 40.1195 9.07516 40.1195 10.5437C40.1195 12.0122 38.9559 13.1734 37.5186 13.1734C36.0812 13.1734 34.9176 12.0122 34.9176 10.5437C34.9176 9.07516 36.0812 7.91398 37.5186 7.91398ZM13.186 10.5095C13.186 9.07516 11.9882 7.91398 10.5508 7.91398C9.07926 7.91398 7.91569 9.07516 7.91569 10.5095C7.91569 11.9439 9.11348 13.1051 10.5508 13.1051C12.0224 13.1051 13.186 11.9439 13.186 10.5095Z" fill="black"/>
</svg>
