<svg xmlns="http://www.w3.org/2000/svg" fill="none" viewBox="0 0 48 48">
  <g clip-path="url(#a)">
    <path fill="#fff" d="M0 0h48v48H0z"/>
    <path fill="url(#b)" d="M0 0h48v48.469H0z"/>
    <path fill="#fff" d="M7.902 32.1c.762-.06 1.203-.477 1.426-1.358l1.314-4.942.053-.004 1.314 4.735c.23.865.657 1.194 1.44 1.133.748-.06 1.162-.46 1.399-1.343l1.814-6.794c.079-.323.131-.643.131-.854 0-.679-.447-1.04-1.19-.98-.63.049-1.005.421-1.15 1.144l-1.182 5.61-.053.005-1.386-5.468c-.158-.646-.546-.952-1.163-.904-.638.05-1 .389-1.17 1.095l-1.38 5.678-.053.004-1.183-5.424c-.144-.7-.519-1.014-1.15-.964-.742.058-1.189.49-1.189 1.168 0 .218.053.536.131.833l1.808 6.49c.236.864.65 1.2 1.419 1.14ZM19.285 31.06l2.641-.208c2.859-.226 4.548-2.132 4.548-5.17 0-3.033-1.683-4.568-4.548-4.342l-2.641.207c-.763.06-1.21.557-1.21 1.361v6.981c0 .804.447 1.23 1.21 1.17Zm1.202-2.046v-5.61l1.124-.088c1.524-.12 2.412.779 2.412 2.565 0 1.899-.842 2.92-2.412 3.044l-1.124.089ZM31.022 30.28c.762-.06 1.203-.549 1.203-1.353v-2.155l2.792-4.643a1.6 1.6 0 0 0 .257-.858c0-.646-.506-1.087-1.19-1.033-.48.037-.795.28-1.104.858l-1.912 3.48-.046.003L29.11 21.4c-.322-.554-.605-.723-1.13-.682-.704.055-1.216.577-1.216 1.243 0 .277.078.547.25.804l2.799 4.196v2.156c0 .804.44 1.224 1.209 1.164ZM39.855 29.585c.762-.06 1.202-.549 1.202-1.353v-6.447l1.67-.131c.637-.05 1.07-.44 1.07-1.06 0-.62-.42-.943-1.07-.892l-5.737.452c-.658.052-1.078.44-1.078 1.06 0 .62.434.942 1.078.891l1.662-.13v6.446c0 .804.44 1.224 1.203 1.165Z"/>
    <path fill="#000" fill-rule="evenodd" d="M4.675 24.47a3.611 3.611 0 0 1-.131-.833c0-.679.447-1.11 1.19-1.168.63-.05 1.005.264 1.15.964l1.182 5.424.053-.004 1.38-5.679c.17-.705.532-1.043 1.17-1.093.617-.05 1.005.257 1.163.903l1.386 5.468.053-.004 1.183-5.61c.144-.724.519-1.096 1.15-1.146.742-.058 1.19.302 1.19.981 0 .21-.053.532-.132.854l-1.814 6.794c-.237.882-.65 1.284-1.4 1.343-.782.061-1.209-.268-1.439-1.133l-1.314-4.735-.053.004-1.314 4.942c-.223.881-.664 1.298-1.426 1.358-.769.06-1.183-.276-1.42-1.14l-1.807-6.49Zm.814 6.764-.001-.002-1.81-6.497a4.601 4.601 0 0 1-.165-1.098c0-.578.197-1.134.627-1.554.418-.409.965-.599 1.512-.642.505-.04 1.049.06 1.501.438.432.362.64.863.74 1.34l.252 1.16.352-1.447c.113-.469.319-.94.707-1.303.402-.376.893-.538 1.384-.577.498-.039 1.024.06 1.469.407.431.336.66.81.775 1.276l.322 1.268.29-1.373c.098-.486.295-.97.675-1.349.395-.393.893-.577 1.404-.617.538-.042 1.132.054 1.608.444.131.108.242.229.333.358.049-.07.102-.138.16-.204.417-.467.988-.696 1.58-.743l2.641-.207c1.536-.121 2.924.195 3.96 1.07.249-.954 1.1-1.614 2.093-1.692.39-.03.83.007 1.255.262.394.238.651.592.844.923l1.008 1.674 1.069-1.945c.189-.353.427-.695.762-.955a2.134 2.134 0 0 1 1.167-.44 2.179 2.179 0 0 1 1.553.458c.387-.342.873-.503 1.353-.541l5.736-.452c.5-.039 1.059.054 1.512.423.474.386.672.943.672 1.497a2.03 2.03 0 0 1-.612 1.486c-.395.38-.905.562-1.41.602l-.718.056v5.494c0 .588-.164 1.178-.577 1.642-.418.468-.988.693-1.576.74-.58.045-1.206-.083-1.684-.544-.471-.454-.631-1.07-.631-1.649V23.09l-.55.043c-.422.034-.886-.029-1.292-.27l-2.523 4.195v1.869c0 .588-.164 1.178-.577 1.642-.418.468-.988.693-1.576.74-.582.046-1.209-.082-1.688-.542-.473-.454-.633-1.071-.633-1.65v-1.843l-1.283-1.923c.004.11.006.22.006.33 0 1.71-.477 3.208-1.46 4.323-.987 1.12-2.391 1.746-4.038 1.876l-2.642.207c-.584.046-1.21-.086-1.687-.546-.47-.454-.634-1.069-.634-1.652v-3.796l-1.2 4.495c-.143.535-.373 1.057-.789 1.456-.437.42-.972.604-1.526.648-.546.043-1.138-.04-1.643-.435-.483-.378-.73-.923-.872-1.455l-.324-1.168-.364 1.368c-.14.547-.376 1.073-.798 1.474-.441.42-.983.608-1.545.652-.549.044-1.138-.045-1.637-.448-.472-.38-.714-.922-.857-1.446Zm24.324-4.273v2.156c0 .804.44 1.224 1.209 1.164.762-.06 1.203-.55 1.203-1.354v-2.155l2.792-4.643.04-.067a1.572 1.572 0 0 0 .215-.848 1.007 1.007 0 0 0-.287-.676c-.214-.214-.532-.33-.9-.3-.48.037-.796.28-1.105.858l-1.912 3.48-.046.003L29.11 21.4c-.322-.554-.605-.723-1.13-.682-.704.055-1.216.577-1.216 1.243 0 .277.078.547.25.804l2.799 4.196Zm6.408-5.04c.188.145.453.209.769.184l1.662-.13v6.446c0 .804.44 1.224 1.203 1.165.762-.06 1.202-.55 1.202-1.354v-6.447l1.67-.131c.637-.05 1.07-.44 1.07-1.06 0-.62-.42-.943-1.07-.892l-5.737.452c-.352.028-.635.152-.823.355a1.01 1.01 0 0 0-.254.762c.013.288.124.508.308.65Zm-15.734 7.093 1.124-.089c1.57-.123 2.412-1.146 2.412-3.044 0-1.786-.888-2.685-2.412-2.566l-1.124.089v5.61Zm1.031-1.116h.012c.568-.046.88-.235 1.07-.474.21-.261.391-.731.391-1.543 0-.741-.185-1.114-.35-1.286-.143-.15-.407-.294-.95-.251l-.173.013v3.541Zm.408 2.954-2.641.207c-.763.06-1.21-.366-1.21-1.17v-6.98c0-.805.447-1.301 1.21-1.361l2.641-.208c2.865-.226 4.548 1.31 4.548 4.342 0 3.038-1.69 4.945-4.548 5.17Z" clip-rule="evenodd"/>
  </g>
  <defs>
    <linearGradient id="b" x1="24" x2="24" y1="49.676" y2="-.876" gradientUnits="userSpaceOnUse">
      <stop stop-color="#E361B7"/>
      <stop offset="1" stop-color="#FBF671"/>
    </linearGradient>
    <clipPath id="a">
      <path fill="#fff" d="M0 0h48v48H0z"/>
    </clipPath>
  </defs>
</svg>
